<?xml version="1.0" encoding="UTF-8" standalone="no"?>
<!-- Created with Inkscape (http://www.inkscape.org/) -->

<svg
   width="500"
   height="500"
   viewBox="0 0 500 500"
   version="1.1"
   id="svg1"
   inkscape:version="1.3.2 (091e20e, 2023-11-25, custom)"
   sodipodi:docname="tfg-logo-final.svg"
   xmlns:inkscape="http://www.inkscape.org/namespaces/inkscape"
   xmlns:sodipodi="http://sodipodi.sourceforge.net/DTD/sodipodi-0.dtd"
   xmlns="http://www.w3.org/2000/svg"
   xmlns:svg="http://www.w3.org/2000/svg">
  <sodipodi:namedview
     id="namedview1"
     pagecolor="#505050"
     bordercolor="#eeeeee"
     borderopacity="1"
     inkscape:showpageshadow="0"
     inkscape:pageopacity="0"
     inkscape:pagecheckerboard="0"
     inkscape:deskcolor="#505050"
     inkscape:document-units="px"
     inkscape:zoom="1"
     inkscape:cx="62"
     inkscape:cy="232.5"
     inkscape:window-width="1920"
     inkscape:window-height="1017"
     inkscape:window-x="-8"
     inkscape:window-y="-8"
     inkscape:window-maximized="1"
     inkscape:current-layer="layer1" />
  <defs
     id="defs1" />
  <g
     inkscape:label="Layer 1"
     inkscape:groupmode="layer"
     id="layer1">
    <g
       id="g1"
       transform="matrix(10.475656,0,0,10.475656,-1560.8727,-2084.6555)"
       style="stroke-width:0.0954594">
      <rect
         style="fill:#575757;fill-opacity:1;stroke:none;stroke-width:0.180418;stroke-linecap:round;stroke-dasharray:none"
         id="rect67"
         width="47.729706"
         height="47.729706"
         x="149"
         y="199" />
      <g
         id="g70"
         transform="translate(-233.40956,89.721301)"
         style="stroke-width:0.0954594">
        <path
           id="rect59-7-7"
           style="fill:#f5ece5;fill-opacity:1;stroke-width:0.180395;stroke-linecap:round"
           d="m 401.81641,117 c 3.56338,10.97715 3.33983,15.48177 1.90039,19.16211 3.63126,-0.80114 8.58372,-1.73521 11.79297,-1.90039 -3.10417,-9.67189 -9.10696,-13.706 -13.69336,-17.26172 z m 0.30859,4.05859 c -0.86117,6.91064 -3.26719,12.91226 -6.66016,16.69336 2.31997,-0.23047 4.85387,-0.80794 7.17383,-1.50195 1.91942,-5.75601 0.87452,-10.6914 -0.51367,-15.19141 z m 15.34766,13.9961 c -4.48029,-0.12685 -19.89459,4.07737 -25.03516,3.5039 0.065,0.52086 21.66846,8.09603 26.26562,-2.92968 0.0549,-0.37833 -0.40078,-0.55073 -1.23046,-0.57422 z" />
        <path
           id="rect59-7-9-3"
           style="fill:#ec722f;fill-opacity:1;stroke-width:0.180395;stroke-linecap:round"
           d="m 386,139.64258 v 5.35156 h 40.54883 v -5.35156 h -9.375 c -6.80925,6.21672 -22.75077,0.97014 -24.44532,0 z" />
        <path
           id="rect66-9"
           style="fill:#d65126;fill-opacity:1;stroke:none;stroke-width:0.180418;stroke-linecap:round;stroke-dasharray:none"
           d="m 386,145.78906 v 3.49805 h 40.54883 v -3.49805 z" />
      </g>
    </g>
  </g>
</svg>
